<svg id="SvgjsSvg1000" xmlns="http://www.w3.org/2000/svg" version="1.1" xmlns:xlink="http://www.w3.org/1999/xlink" xmlns:svgjs="http://svgjs.com/svgjs" width="4896" height="3182" viewBox="0 0 4896 3182"><title>свет</title><desc>Created with Avocode.</desc><defs id="SvgjsDefs1001"><radialGradient id="SvgjsRadialGradient1008" gradientUnits="userSpaceOnUse" cx="1248.9824264610506" cy="1839.3367723719175" r="669.5"><stop id="SvgjsStop1009" stop-opacity="1" stop-color="#fdd573" offset="0"></stop><stop id="SvgjsStop1010" stop-opacity="0" stop-color="#fdd573" offset="1"></stop></radialGradient><radialGradient id="SvgjsRadialGradient1012" gradientUnits="userSpaceOnUse" cx="284.97905242659544" cy="1262.3369067872618" r="669.5"><stop id="SvgjsStop1013" stop-opacity="1" stop-color="#efefed" offset="0"></stop><stop id="SvgjsStop1014" stop-opacity="0" stop-color="#fdd573" offset="1"></stop></radialGradient><radialGradient id="SvgjsRadialGradient1016" gradientUnits="userSpaceOnUse" cx="3841.58" cy="1905.8490596072265" r="779.5"><stop id="SvgjsStop1017" stop-opacity="1" stop-color="#fdd573" offset="0"></stop><stop id="SvgjsStop1018" stop-opacity="0" stop-color="#fdd573" offset="1"></stop></radialGradient><radialGradient id="SvgjsRadialGradient1020" gradientUnits="userSpaceOnUse" cx="540.4309443020476" cy="2166.9405593293227" r="779.4999999999999"><stop id="SvgjsStop1021" stop-opacity="1" stop-color="#fdd573" offset="0"></stop><stop id="SvgjsStop1022" stop-opacity="0" stop-color="#fdd573" offset="1"></stop></radialGradient><radialGradient id="SvgjsRadialGradient1024" gradientUnits="userSpaceOnUse" cx="2317.2750005819134" cy="1333.130058786228" r="644.5"><stop id="SvgjsStop1025" stop-opacity="1" stop-color="#fdd573" offset="0"></stop><stop id="SvgjsStop1026" stop-opacity="0" stop-color="#fdd573" offset="1"></stop></radialGradient><radialGradient id="SvgjsRadialGradient1028" gradientUnits="userSpaceOnUse" cx="2139.0720276289553" cy="3135.1849999999995" r="1016.5"><stop id="SvgjsStop1029" stop-opacity="1" stop-color="#ddb997" offset="0"></stop><stop id="SvgjsStop1030" stop-opacity="0" stop-color="#fdd573" offset="1"></stop></radialGradient><radialGradient id="SvgjsRadialGradient1032" gradientUnits="userSpaceOnUse" cx="2768.0199999999995" cy="1340.6076200557718" r="597.5"><stop id="SvgjsStop1033" stop-opacity="0.73" stop-color="#b8645a" offset="0"></stop><stop id="SvgjsStop1034" stop-opacity="0" stop-color="#fdd573" offset="1"></stop></radialGradient><radialGradient id="SvgjsRadialGradient1036" gradientUnits="userSpaceOnUse" cx="2081.682990987728" cy="1158.7147507473037" r="675.5"><stop id="SvgjsStop1037" stop-opacity="0.73" stop-color="#b8645a" offset="0"></stop><stop id="SvgjsStop1038" stop-opacity="0" stop-color="#fdd573" offset="1"></stop></radialGradient><radialGradient id="SvgjsRadialGradient1040" gradientUnits="userSpaceOnUse" cx="1062.9789909314163" cy="1200.6998809338409" r="221"><stop id="SvgjsStop1041" stop-opacity="1" stop-color="#fdd573" offset="0"></stop><stop id="SvgjsStop1042" stop-opacity="1" stop-color="#fcfac7" offset="0"></stop><stop id="SvgjsStop1043" stop-opacity="0" stop-color="#fdd573" offset="1"></stop></radialGradient><radialGradient id="SvgjsRadialGradient1045" gradientUnits="userSpaceOnUse" cx="1326.1759635543065" cy="1178.7461005276277" r="185.5"><stop id="SvgjsStop1046" stop-opacity="1" stop-color="#fdd573" offset="0"></stop><stop id="SvgjsStop1047" stop-opacity="1" stop-color="#fcfac7" offset="0"></stop><stop id="SvgjsStop1048" stop-opacity="0" stop-color="#fdd573" offset="1"></stop></radialGradient><radialGradient id="SvgjsRadialGradient1050" gradientUnits="userSpaceOnUse" cx="1474.085092212326" cy="1012.8284407670751" r="84.5"><stop id="SvgjsStop1051" stop-opacity="1" stop-color="#fdd573" offset="0"></stop><stop id="SvgjsStop1052" stop-opacity="1" stop-color="#fcfac7" offset="0"></stop><stop id="SvgjsStop1053" stop-opacity="0" stop-color="#fdd573" offset="1"></stop></radialGradient><radialGradient id="SvgjsRadialGradient1055" gradientUnits="userSpaceOnUse" cx="1187.0799064930754" cy="1055.7964804486762" r="43.5"><stop id="SvgjsStop1056" stop-opacity="1" stop-color="#fdd573" offset="0"></stop><stop id="SvgjsStop1057" stop-opacity="1" stop-color="#ffffff" offset="0"></stop><stop id="SvgjsStop1058" stop-opacity="0" stop-color="#ffffff" offset="1"></stop></radialGradient><radialGradient id="SvgjsRadialGradient1060" gradientUnits="userSpaceOnUse" cx="1578.8649061194492" cy="1039.132621512993" r="53"><stop id="SvgjsStop1061" stop-opacity="1" stop-color="#fdd573" offset="0"></stop><stop id="SvgjsStop1062" stop-opacity="1" stop-color="#fcfac7" offset="0"></stop><stop id="SvgjsStop1063" stop-opacity="0" stop-color="#fdd573" offset="1"></stop></radialGradient><radialGradient id="SvgjsRadialGradient1065" gradientUnits="userSpaceOnUse" cx="1341.0149999999999" cy="908.913" r="52.5"><stop id="SvgjsStop1066" stop-opacity="1" stop-color="#fdd573" offset="0"></stop><stop id="SvgjsStop1067" stop-opacity="1" stop-color="#fcfac7" offset="0"></stop><stop id="SvgjsStop1068" stop-opacity="0" stop-color="#fdd573" offset="1"></stop></radialGradient><radialGradient id="SvgjsRadialGradient1070" gradientUnits="userSpaceOnUse" cx="1133.835093880551" cy="978.7980000012628" r="52.5"><stop id="SvgjsStop1071" stop-opacity="1" stop-color="#fdd573" offset="0"></stop><stop id="SvgjsStop1072" stop-opacity="1" stop-color="#fcfac7" offset="0"></stop><stop id="SvgjsStop1073" stop-opacity="0" stop-color="#fdd573" offset="1"></stop></radialGradient><radialGradient id="SvgjsRadialGradient1075" gradientUnits="userSpaceOnUse" cx="1089.0834811839204" cy="1031.089939535998" r="53"><stop id="SvgjsStop1076" stop-opacity="1" stop-color="#fdd573" offset="0"></stop><stop id="SvgjsStop1077" stop-opacity="1" stop-color="#fcfac7" offset="0"></stop><stop id="SvgjsStop1078" stop-opacity="0" stop-color="#fdd573" offset="1"></stop></radialGradient><radialGradient id="SvgjsRadialGradient1080" gradientUnits="userSpaceOnUse" cx="1036.7849818146365" cy="1073.8304205037593" r="53"><stop id="SvgjsStop1081" stop-opacity="1" stop-color="#fdd573" offset="0"></stop><stop id="SvgjsStop1082" stop-opacity="1" stop-color="#fcfac7" offset="0"></stop><stop id="SvgjsStop1083" stop-opacity="0" stop-color="#fdd573" offset="1"></stop></radialGradient><radialGradient id="SvgjsRadialGradient1085" gradientUnits="userSpaceOnUse" cx="1186.1349999999998" cy="908.913" r="52.5"><stop id="SvgjsStop1086" stop-opacity="1" stop-color="#fdd573" offset="0"></stop><stop id="SvgjsStop1087" stop-opacity="1" stop-color="#fcfac7" offset="0"></stop><stop id="SvgjsStop1088" stop-opacity="0" stop-color="#fdd573" offset="1"></stop></radialGradient><radialGradient id="SvgjsRadialGradient1090" gradientUnits="userSpaceOnUse" cx="1214.795" cy="828.966" r="53"><stop id="SvgjsStop1091" stop-opacity="1" stop-color="#fdd573" offset="0"></stop><stop id="SvgjsStop1092" stop-opacity="1" stop-color="#fcfac7" offset="0"></stop><stop id="SvgjsStop1093" stop-opacity="0" stop-color="#fdd573" offset="1"></stop></radialGradient><radialGradient id="SvgjsRadialGradient1095" gradientUnits="userSpaceOnUse" cx="945.266" cy="1120.0850000130245" r="53"><stop id="SvgjsStop1096" stop-opacity="1" stop-color="#fdd573" offset="0"></stop><stop id="SvgjsStop1097" stop-opacity="1" stop-color="#fcfac7" offset="0"></stop><stop id="SvgjsStop1098" stop-opacity="0" stop-color="#fdd573" offset="1"></stop></radialGradient><radialGradient id="SvgjsRadialGradient1100" gradientUnits="userSpaceOnUse" cx="847.7120092528991" cy="1123.1000027073624" r="53"><stop id="SvgjsStop1101" stop-opacity="1" stop-color="#fdd573" offset="0"></stop><stop id="SvgjsStop1102" stop-opacity="1" stop-color="#fcfac7" offset="0"></stop><stop id="SvgjsStop1103" stop-opacity="0" stop-color="#fdd573" offset="1"></stop></radialGradient><radialGradient id="SvgjsRadialGradient1105" gradientUnits="userSpaceOnUse" cx="732.056" cy="1105" r="53"><stop id="SvgjsStop1106" stop-opacity="1" stop-color="#fdd573" offset="0"></stop><stop id="SvgjsStop1107" stop-opacity="1" stop-color="#fcfac7" offset="0"></stop><stop id="SvgjsStop1108" stop-opacity="0" stop-color="#fdd573" offset="1"></stop></radialGradient><radialGradient id="SvgjsRadialGradient1110" gradientUnits="userSpaceOnUse" cx="674.7305000582344" cy="1070.811919402573" r="53"><stop id="SvgjsStop1111" stop-opacity="1" stop-color="#fdd573" offset="0"></stop><stop id="SvgjsStop1112" stop-opacity="1" stop-color="#fcfac7" offset="0"></stop><stop id="SvgjsStop1113" stop-opacity="0" stop-color="#fdd573" offset="1"></stop></radialGradient><radialGradient id="SvgjsRadialGradient1115" gradientUnits="userSpaceOnUse" cx="626.9620000580857" cy="1025.0536212399466" r="52.5"><stop id="SvgjsStop1116" stop-opacity="1" stop-color="#fdd573" offset="0"></stop><stop id="SvgjsStop1117" stop-opacity="1" stop-color="#fcfac7" offset="0"></stop><stop id="SvgjsStop1118" stop-opacity="0" stop-color="#fdd573" offset="1"></stop></radialGradient><radialGradient id="SvgjsRadialGradient1120" gradientUnits="userSpaceOnUse" cx="572.1485" cy="964.22" r="53"><stop id="SvgjsStop1121" stop-opacity="1" stop-color="#fdd573" offset="0"></stop><stop id="SvgjsStop1122" stop-opacity="1" stop-color="#fcfac7" offset="0"></stop><stop id="SvgjsStop1123" stop-opacity="0" stop-color="#fdd573" offset="1"></stop></radialGradient><radialGradient id="SvgjsRadialGradient1125" gradientUnits="userSpaceOnUse" cx="530.9140000001212" cy="1039.132621512993" r="53"><stop id="SvgjsStop1126" stop-opacity="1" stop-color="#fdd573" offset="0"></stop><stop id="SvgjsStop1127" stop-opacity="1" stop-color="#fcfac7" offset="0"></stop><stop id="SvgjsStop1128" stop-opacity="0" stop-color="#fdd573" offset="1"></stop></radialGradient><radialGradient id="SvgjsRadialGradient1130" gradientUnits="userSpaceOnUse" cx="465.0434999420355" cy="1097.9600027073623" r="52.5"><stop id="SvgjsStop1131" stop-opacity="1" stop-color="#fdd573" offset="0"></stop><stop id="SvgjsStop1132" stop-opacity="1" stop-color="#fcfac7" offset="0"></stop><stop id="SvgjsStop1133" stop-opacity="0" stop-color="#fdd573" offset="1"></stop></radialGradient><radialGradient id="SvgjsRadialGradient1135" gradientUnits="userSpaceOnUse" cx="360.95" cy="1151.76" r="53"><stop id="SvgjsStop1136" stop-opacity="1" stop-color="#fdd573" offset="0"></stop><stop id="SvgjsStop1137" stop-opacity="1" stop-color="#fcfac7" offset="0"></stop><stop id="SvgjsStop1138" stop-opacity="0" stop-color="#fdd573" offset="1"></stop></radialGradient><radialGradient id="SvgjsRadialGradient1140" gradientUnits="userSpaceOnUse" cx="245.29350005835687" cy="1123.1000027073624" r="53"><stop id="SvgjsStop1141" stop-opacity="1" stop-color="#fdd573" offset="0"></stop><stop id="SvgjsStop1142" stop-opacity="1" stop-color="#fcfac7" offset="0"></stop><stop id="SvgjsStop1143" stop-opacity="0" stop-color="#fdd573" offset="1"></stop></radialGradient><radialGradient id="SvgjsRadialGradient1145" gradientUnits="userSpaceOnUse" cx="1757.8750005730963" cy="516.2290000012629" r="53"><stop id="SvgjsStop1146" stop-opacity="1" stop-color="#fdd573" offset="0"></stop><stop id="SvgjsStop1147" stop-opacity="1" stop-color="#fcfac7" offset="0"></stop><stop id="SvgjsStop1148" stop-opacity="0" stop-color="#fdd573" offset="1"></stop></radialGradient><radialGradient id="SvgjsRadialGradient1150" gradientUnits="userSpaceOnUse" cx="1832.295093880551" cy="551.9300000012629" r="53"><stop id="SvgjsStop1151" stop-opacity="1" stop-color="#fdd573" offset="0"></stop><stop id="SvgjsStop1152" stop-opacity="1" stop-color="#fcfac7" offset="0"></stop><stop id="SvgjsStop1153" stop-opacity="0" stop-color="#fdd573" offset="1"></stop></radialGradient><radialGradient id="SvgjsRadialGradient1155" gradientUnits="userSpaceOnUse" cx="1884.095000573096" cy="567.014" r="52.5"><stop id="SvgjsStop1156" stop-opacity="1" stop-color="#fdd573" offset="0"></stop><stop id="SvgjsStop1157" stop-opacity="1" stop-color="#fcfac7" offset="0"></stop><stop id="SvgjsStop1158" stop-opacity="0" stop-color="#fdd573" offset="1"></stop></radialGradient><radialGradient id="SvgjsRadialGradient1160" gradientUnits="userSpaceOnUse" cx="1959.015093880551" cy="572.0419999999999" r="53"><stop id="SvgjsStop1161" stop-opacity="1" stop-color="#fdd573" offset="0"></stop><stop id="SvgjsStop1162" stop-opacity="1" stop-color="#fcfac7" offset="0"></stop><stop id="SvgjsStop1163" stop-opacity="0" stop-color="#fdd573" offset="1"></stop></radialGradient><radialGradient id="SvgjsRadialGradient1165" gradientUnits="userSpaceOnUse" cx="2010.8150005730959" cy="555.9525" r="52.5"><stop id="SvgjsStop1166" stop-opacity="1" stop-color="#fdd573" offset="0"></stop><stop id="SvgjsStop1167" stop-opacity="1" stop-color="#fcfac7" offset="0"></stop><stop id="SvgjsStop1168" stop-opacity="0" stop-color="#fdd573" offset="1"></stop></radialGradient><radialGradient id="SvgjsRadialGradient1170" gradientUnits="userSpaceOnUse" cx="2427.1250928502113" cy="1112.9752005631549" r="60.5"><stop id="SvgjsStop1171" stop-opacity="1" stop-color="#fdd573" offset="0"></stop><stop id="SvgjsStop1172" stop-opacity="1" stop-color="#fcfac7" offset="0"></stop><stop id="SvgjsStop1173" stop-opacity="0" stop-color="#fdd573" offset="1"></stop></radialGradient><radialGradient id="SvgjsRadialGradient1175" gradientUnits="userSpaceOnUse" cx="2679.2700005890983" cy="1167.1150027876836" r="70"><stop id="SvgjsStop1176" stop-opacity="1" stop-color="#fdd573" offset="0"></stop><stop id="SvgjsStop1177" stop-opacity="1" stop-color="#fcfac7" offset="0"></stop><stop id="SvgjsStop1178" stop-opacity="0" stop-color="#fdd573" offset="1"></stop></radialGradient><radialGradient id="SvgjsRadialGradient1180" gradientUnits="userSpaceOnUse" cx="2924.755" cy="1148.8400000000001" r="53"><stop id="SvgjsStop1181" stop-opacity="1" stop-color="#fdd573" offset="0"></stop><stop id="SvgjsStop1182" stop-opacity="1" stop-color="#fcfac7" offset="0"></stop><stop id="SvgjsStop1183" stop-opacity="0" stop-color="#fdd573" offset="1"></stop></radialGradient><radialGradient id="SvgjsRadialGradient1185" gradientUnits="userSpaceOnUse" cx="1705.084906119449" cy="1097.9600027073623" r="52.5"><stop id="SvgjsStop1186" stop-opacity="1" stop-color="#fdd573" offset="0"></stop><stop id="SvgjsStop1187" stop-opacity="1" stop-color="#fcfac7" offset="0"></stop><stop id="SvgjsStop1188" stop-opacity="0" stop-color="#fdd573" offset="1"></stop></radialGradient><radialGradient id="SvgjsRadialGradient1190" gradientUnits="userSpaceOnUse" cx="1852.915093880551" cy="1131.1499972926376" r="52.5"><stop id="SvgjsStop1191" stop-opacity="1" stop-color="#fdd573" offset="0"></stop><stop id="SvgjsStop1192" stop-opacity="1" stop-color="#fcfac7" offset="0"></stop><stop id="SvgjsStop1193" stop-opacity="0" stop-color="#fdd573" offset="1"></stop></radialGradient><radialGradient id="SvgjsRadialGradient1195" gradientUnits="userSpaceOnUse" cx="2134.014906119449" cy="1105" r="53"><stop id="SvgjsStop1196" stop-opacity="1" stop-color="#fdd573" offset="0"></stop><stop id="SvgjsStop1197" stop-opacity="1" stop-color="#fcfac7" offset="0"></stop><stop id="SvgjsStop1198" stop-opacity="0" stop-color="#fdd573" offset="1"></stop></radialGradient><radialGradient id="SvgjsRadialGradient1200" gradientUnits="userSpaceOnUse" cx="2243.134999998811" cy="1039.132621512993" r="52.5"><stop id="SvgjsStop1201" stop-opacity="1" stop-color="#fdd573" offset="0"></stop><stop id="SvgjsStop1202" stop-opacity="1" stop-color="#fcfac7" offset="0"></stop><stop id="SvgjsStop1203" stop-opacity="0" stop-color="#fdd573" offset="1"></stop></radialGradient><radialGradient id="SvgjsRadialGradient1205" gradientUnits="userSpaceOnUse" cx="2243.134999998811" cy="1039.132621512993" r="52.5"><stop id="SvgjsStop1206" stop-opacity="1" stop-color="#fdd573" offset="0"></stop><stop id="SvgjsStop1207" stop-opacity="1" stop-color="#fcfac7" offset="0"></stop><stop id="SvgjsStop1208" stop-opacity="0" stop-color="#fdd573" offset="1"></stop></radialGradient></defs><path id="SvgjsPath1007" d="M579.48243 2470.83677L579.48243 1207.83677L1918.48243 1207.83677L1918.48243 2470.83677Z " fill="url(#SvgjsRadialGradient1008)" transform="matrix(1,0,0,1,1054,47)"></path><path id="SvgjsPath1011" d="M-384.52095 1893.83691L-384.52095 630.83691L954.4790499999999 630.83691L954.4790499999999 1893.83691Z " fill="url(#SvgjsRadialGradient1012)" transform="matrix(1,0,0,1,1054,47)"></path><path id="SvgjsPath1015" d="M3062.08 2601.34906L3062.08 1210.34906L4621.08 1210.34906L4621.08 2601.34906Z " fill="url(#SvgjsRadialGradient1016)" transform="matrix(1,0,0,1,1054,47)"></path><path id="SvgjsPath1019" d="M-239.06906 2862.44056L-239.06906 1471.44056L1319.93094 1471.44056L1319.93094 2862.44056Z " fill="url(#SvgjsRadialGradient1020)" transform="matrix(1,0,0,1,1054,47)"></path><path id="SvgjsPath1023" d="M1672.775 1944.63006L1672.775 721.63006L2961.775 721.63006L2961.775 1944.63006Z " fill="url(#SvgjsRadialGradient1024)" transform="matrix(1,0,0,1,1054,47)"></path><path id="SvgjsPath1027" d="M1122.57203 4099.185L1122.57203 2171.1850000000004L3155.5720300000003 2171.1850000000004L3155.5720300000003 4099.185Z " fill="url(#SvgjsRadialGradient1028)" transform="matrix(1,0,0,1,1054,47)"></path><path id="SvgjsPath1031" d="M2170.52 1874.10762L2170.52 807.10762L3365.52 807.10762L3365.52 1874.10762Z " fill="url(#SvgjsRadialGradient1032)" transform="matrix(1,0,0,1,1054,47)"></path><path id="SvgjsPath1035" d="M1406.18299 1761.71475L1406.18299 555.7147500000001L2757.1829900000002 555.7147500000001L2757.1829900000002 1761.71475Z " fill="url(#SvgjsRadialGradient1036)" transform="matrix(1,0,0,1,1054,47)"></path><path id="SvgjsPath1039" d="M841.97899 1397.69988L841.97899 1003.6998799999999L1283.97899 1003.6998799999999L1283.97899 1397.69988Z " fill="url(#SvgjsRadialGradient1040)" transform="matrix(1,0,0,1,1054,47)"></path><path id="SvgjsPath1044" d="M1140.67596 1344.7461L1140.67596 1012.7461000000001L1511.67596 1012.7461000000001L1511.67596 1344.7461Z " fill="url(#SvgjsRadialGradient1045)" transform="matrix(1,0,0,1,1054,47)"></path><path id="SvgjsPath1049" d="M1389.58509 1088.32844L1389.58509 937.32844L1558.58509 937.32844L1558.58509 1088.32844Z " fill="url(#SvgjsRadialGradient1050)" transform="matrix(1,0,0,1,1054,47)"></path><path id="SvgjsPath1054" d="M1143.57991 1094.79648L1143.57991 1016.79648L1230.57991 1016.79648L1230.57991 1094.79648Z " fill="url(#SvgjsRadialGradient1055)" transform="matrix(1,0,0,1,1054,47)"></path><path id="SvgjsPath1059" d="M1525.86491 1086.13262L1525.86491 992.1326200000001L1631.86491 992.1326200000001L1631.86491 1086.13262Z " fill="url(#SvgjsRadialGradient1060)" transform="matrix(1,0,0,1,1054,47)"></path><path id="SvgjsPath1064" d="M1288.515 955.413L1288.515 862.413L1393.515 862.413L1393.515 955.413Z " fill="url(#SvgjsRadialGradient1065)" transform="matrix(1,0,0,1,1054,47)"></path><path id="SvgjsPath1069" d="M1081.33509 1025.798L1081.33509 931.798L1186.33509 931.798L1186.33509 1025.798Z " fill="url(#SvgjsRadialGradient1070)" transform="matrix(1,0,0,1,1054,47)"></path><path id="SvgjsPath1074" d="M1036.08348 1078.08994L1036.08348 984.0899400000001L1142.08348 984.0899400000001L1142.08348 1078.08994Z " fill="url(#SvgjsRadialGradient1075)" transform="matrix(1,0,0,1,1054,47)"></path><path id="SvgjsPath1079" d="M983.78498 1120.33042L983.78498 1027.33042L1089.78498 1027.33042L1089.78498 1120.33042Z " fill="url(#SvgjsRadialGradient1080)" transform="matrix(1,0,0,1,1054,47)"></path><path id="SvgjsPath1084" d="M1133.635 955.413L1133.635 862.413L1238.635 862.413L1238.635 955.413Z " fill="url(#SvgjsRadialGradient1085)" transform="matrix(1,0,0,1,1054,47)"></path><path id="SvgjsPath1089" d="M1161.795 875.966L1161.795 781.966L1267.795 781.966L1267.795 875.966Z " fill="url(#SvgjsRadialGradient1090)" transform="matrix(1,0,0,1,1054,47)"></path><path id="SvgjsPath1094" d="M892.266 1166.585L892.266 1073.585L998.266 1073.585L998.266 1166.585Z " fill="url(#SvgjsRadialGradient1095)" transform="matrix(1,0,0,1,1054,47)"></path><path id="SvgjsPath1099" d="M794.71201 1169.6L794.71201 1076.6L900.71201 1076.6L900.71201 1169.6Z " fill="url(#SvgjsRadialGradient1100)" transform="matrix(1,0,0,1,1054,47)"></path><path id="SvgjsPath1104" d="M679.056 1151.5L679.056 1058.5L785.056 1058.5L785.056 1151.5Z " fill="url(#SvgjsRadialGradient1105)" transform="matrix(1,0,0,1,1054,47)"></path><path id="SvgjsPath1109" d="M621.7305 1117.31192L621.7305 1024.31192L727.7305 1024.31192L727.7305 1117.31192Z " fill="url(#SvgjsRadialGradient1110)" transform="matrix(1,0,0,1,1054,47)"></path><path id="SvgjsPath1114" d="M574.462 1072.05362L574.462 978.0536199999999L679.462 978.0536199999999L679.462 1072.05362Z " fill="url(#SvgjsRadialGradient1115)" transform="matrix(1,0,0,1,1054,47)"></path><path id="SvgjsPath1119" d="M519.1485 1010.72L519.1485 917.72L625.1485 917.72L625.1485 1010.72Z " fill="url(#SvgjsRadialGradient1120)" transform="matrix(1,0,0,1,1054,47)"></path><path id="SvgjsPath1124" d="M477.914 1086.13262L477.914 992.1326200000001L583.914 992.1326200000001L583.914 1086.13262Z " fill="url(#SvgjsRadialGradient1125)" transform="matrix(1,0,0,1,1054,47)"></path><path id="SvgjsPath1129" d="M412.5435 1144.46L412.5435 1051.46L517.5435 1051.46L517.5435 1144.46Z " fill="url(#SvgjsRadialGradient1130)" transform="matrix(1,0,0,1,1054,47)"></path><path id="SvgjsPath1134" d="M307.95 1198.76L307.95 1104.76L413.95 1104.76L413.95 1198.76Z " fill="url(#SvgjsRadialGradient1135)" transform="matrix(1,0,0,1,1054,47)"></path><path id="SvgjsPath1139" d="M192.2935 1169.6L192.2935 1076.6L298.2935 1076.6L298.2935 1169.6Z " fill="url(#SvgjsRadialGradient1140)" transform="matrix(1,0,0,1,1054,47)"></path><path id="SvgjsPath1144" d="M1704.875 563.229L1704.875 469.22900000000004L1810.875 469.22900000000004L1810.875 563.229Z " fill="url(#SvgjsRadialGradient1145)" transform="matrix(1,0,0,1,1054,47)"></path><path id="SvgjsPath1149" d="M1779.29509 598.43L1779.29509 505.42999999999995L1885.29509 505.42999999999995L1885.29509 598.43Z " fill="url(#SvgjsRadialGradient1150)" transform="matrix(1,0,0,1,1054,47)"></path><path id="SvgjsPath1154" d="M1831.595 613.514L1831.595 520.514L1936.595 520.514L1936.595 613.514Z " fill="url(#SvgjsRadialGradient1155)" transform="matrix(1,0,0,1,1054,47)"></path><path id="SvgjsPath1159" d="M1906.01509 618.542L1906.01509 525.542L2012.01509 525.542L2012.01509 618.542Z " fill="url(#SvgjsRadialGradient1160)" transform="matrix(1,0,0,1,1054,47)"></path><path id="SvgjsPath1164" d="M1958.315 602.4525L1958.315 509.4525L2063.315 509.4525L2063.315 602.4525Z " fill="url(#SvgjsRadialGradient1165)" transform="matrix(1,0,0,1,1054,47)"></path><path id="SvgjsPath1169" d="M2366.62509 1166.9752L2366.62509 1058.9752L2487.62509 1058.9752L2487.62509 1166.9752Z " fill="url(#SvgjsRadialGradient1170)" transform="matrix(1,0,0,1,1054,47)"></path><path id="SvgjsPath1174" d="M2609.27 1229.615L2609.27 1104.615L2749.27 1104.615L2749.27 1229.615Z " fill="url(#SvgjsRadialGradient1175)" transform="matrix(1,0,0,1,1054,47)"></path><path id="SvgjsPath1179" d="M2871.755 1195.34L2871.755 1102.34L2977.755 1102.34L2977.755 1195.34Z " fill="url(#SvgjsRadialGradient1180)" transform="matrix(1,0,0,1,1054,47)"></path><path id="SvgjsPath1184" d="M1652.58491 1144.46L1652.58491 1051.46L1757.58491 1051.46L1757.58491 1144.46Z " fill="url(#SvgjsRadialGradient1185)" transform="matrix(1,0,0,1,1054,47)"></path><path id="SvgjsPath1189" d="M1800.41509 1177.65L1800.41509 1084.65L1905.41509 1084.65L1905.41509 1177.65Z " fill="url(#SvgjsRadialGradient1190)" transform="matrix(1,0,0,1,1054,47)"></path><path id="SvgjsPath1194" d="M2081.01491 1151.5L2081.01491 1058.5L2187.01491 1058.5L2187.01491 1151.5Z " fill="url(#SvgjsRadialGradient1195)" transform="matrix(1,0,0,1,1054,47)"></path><path id="SvgjsPath1199" d="M2190.635 1086.13262L2190.635 992.1326200000001L2295.635 992.1326200000001L2295.635 1086.13262Z " fill="url(#SvgjsRadialGradient1200)" transform="matrix(1,0,0,1,1054,47)"></path><path id="SvgjsPath1204" d="M2190.635 1086.13262L2190.635 992.1326200000001L2295.635 992.1326200000001L2295.635 1086.13262Z " fill="url(#SvgjsRadialGradient1205)" transform="matrix(1,0,0,1,1054,47)"></path></svg>