<svg xmlns="http://www.w3.org/2000/svg" width="27" height="28" viewBox="0 0 27 28"><title>Shape 9</title><path d="M.96 27.068a.82.82 0 0 1-.59-.244.823.823 0 0 1 0-1.177l11.89-11.905L.37 1.838A.825.825 0 0 1 .37.66a.835.835 0 0 1 1.18.001l11.905 11.917L25.36.661A.835.835 0 0 1 26.54.66c.32.325.32.853 0 1.178L14.65 13.742l11.89 11.905c.32.325.32.852 0 1.177a.836.836 0 0 1-1.18-.001L13.455 14.907 1.55 26.823a.85.85 0 0 1-.59.245z" fill="#c99065"/><path d="M.96 27.068a.82.82 0 0 1-.59-.244.823.823 0 0 1 0-1.177l11.89-11.905L.37 1.838A.825.825 0 0 1 .37.66a.835.835 0 0 1 1.18.001l11.905 11.917L25.36.661A.835.835 0 0 1 26.54.66c.32.325.32.853 0 1.178L14.65 13.742l11.89 11.905c.32.325.32.852 0 1.177a.836.836 0 0 1-1.18-.001L13.455 14.907 1.55 26.823a.85.85 0 0 1-.59.245z" fill="#96731c"/></svg>