<svg xmlns="http://www.w3.org/2000/svg" width="72" height="26" viewBox="0 0 72 26"><title>ключ копия</title><path d="M12.49 23.791C5.94 23.791.62 18.475.62 11.942S5.94.095 12.49.095c5.871 0 10.767 4.283 11.707 9.885H69.05c1.22 0 2.21.944 2.21 2.11v11.212c0 1.166-.99 2.11-2.21 2.11s-2.21-.944-2.21-2.11V14.2h-6.33v5.742c0 1.166-.98 2.11-2.2 2.11-1.22 0-2.21-.944-2.21-2.11V14.2H24.144c-1.06 5.457-5.887 9.591-11.654 9.591zm0-19.477c-4.11 0-7.45 3.423-7.45 7.628 0 4.207 3.34 7.629 7.45 7.629s7.45-3.422 7.45-7.629c0-4.205-3.34-7.628-7.45-7.628z" fill="#c99065"/><path d="M12.49 23.791C5.94 23.791.62 18.475.62 11.942S5.94.095 12.49.095c5.871 0 10.767 4.283 11.707 9.885H69.05c1.22 0 2.21.944 2.21 2.11v11.212c0 1.166-.99 2.11-2.21 2.11s-2.21-.944-2.21-2.11V14.2h-6.33v5.742c0 1.166-.98 2.11-2.2 2.11-1.22 0-2.21-.944-2.21-2.11V14.2H24.144c-1.06 5.457-5.887 9.591-11.654 9.591zm0-19.477c-4.11 0-7.45 3.423-7.45 7.628 0 4.207 3.34 7.629 7.45 7.629s7.45-3.422 7.45-7.629c0-4.205-3.34-7.628-7.45-7.628z" fill="#96731c"/></svg>