<svg xmlns="http://www.w3.org/2000/svg" width="23" height="41" viewBox="0 0 23 41"><title>facebook</title><path d="M14.49 40.31H7.61a.95.95 0 0 1-.94-.96V22.98H1.85c-.52 0-.94-.42-.94-.95v-6.75c0-.53.42-.95.94-.95h4.82V10.3c0-6.09 3.64-9.87 9.51-9.87 2.63 0 4.74.2 5.27.27.47.06.82.47.82.95v6.03c0 .53-.42.96-.94.96H17.8c-2.04 0-2.36.69-2.36 2.33v3.36h5.66c.27 0 .53.12.7.32.18.21.26.48.23.75l-.86 6.75c-.06.48-.46.83-.93.83h-4.8v16.37c0 .53-.43.96-.95.96zM8.55 38.4h5V22.03c0-.53.42-.95.94-.95h4.92l.62-4.85h-5.54c-.52 0-.94-.42-.94-.95v-4.31c0-1.82.44-4.24 4.25-4.24h2.59V2.51c-.97-.09-2.51-.18-4.21-.18-4.77 0-7.63 2.98-7.63 7.97v4.98c0 .53-.42.95-.94.95H2.79v4.85h4.82c.52 0 .94.42.94.95z" fill="#000001"/><path d="M14.49 40.31H7.61a.95.95 0 0 1-.94-.96V22.98H1.85c-.52 0-.94-.42-.94-.95v-6.75c0-.53.42-.95.94-.95h4.82V10.3c0-6.09 3.64-9.87 9.51-9.87 2.63 0 4.74.2 5.27.27.47.06.82.47.82.95v6.03c0 .53-.42.96-.94.96H17.8c-2.04 0-2.36.69-2.36 2.33v3.36h5.66c.27 0 .53.12.7.32.18.21.26.48.23.75l-.86 6.75c-.06.48-.46.83-.93.83h-4.8v16.37c0 .53-.43.96-.95.96zM8.55 38.4h5V22.03c0-.53.42-.95.94-.95h4.92l.62-4.85h-5.54c-.52 0-.94-.42-.94-.95v-4.31c0-1.82.44-4.24 4.25-4.24h2.59V2.51c-.97-.09-2.51-.18-4.21-.18-4.77 0-7.63 2.98-7.63 7.97v4.98c0 .53-.42.95-.94.95H2.79v4.85h4.82c.52 0 .94.42.94.95z" fill="#363d43"/></svg>