<svg xmlns="http://www.w3.org/2000/svg" width="43" height="36" viewBox="0 0 43 36"><title>twitter</title><path d="M13.9 35.41c-4.71 0-9.29-1.36-13.25-3.93a.964.964 0 0 1-.38-1.12c.15-.42.57-.69 1-.63 3.32.4 6.78-.29 9.69-1.97-2.88-.87-5.21-3.13-6.16-6.11-.1-.33-.02-.68.2-.93.13-.15.31-.25.5-.3a9.426 9.426 0 0 1-3.65-7.46c0-.33.17-.7.46-.87.29-.17.64-.23.93-.07.09.05.17.1.26.14a9.436 9.436 0 0 1-1.59-5.25c0-1.65.44-3.28 1.25-4.71.16-.27.44-.44.74-.47.31-.02.61.11.81.35 3.81 4.73 9.32 7.73 15.27 8.35-.02-.29-.04-.58-.04-.87 0-5.17 4.15-9.37 9.25-9.37 2.37 0 4.66.93 6.37 2.57 1.58-.37 3.08-.98 4.49-1.82.34-.2.76-.17 1.07.07.3.25.43.66.31 1.04-.3.95-.75 1.83-1.32 2.63.4-.14.78-.29 1.16-.46.38-.18.83-.07 1.1.26.27.32.29.79.06 1.14a18.028 18.028 0 0 1-3.97 4.29c.01.2.01.41.01.62 0 12.23-9.19 24.88-24.57 24.88zm-8.91-3.75c2.8 1.21 5.82 1.84 8.91 1.84 14.2 0 22.69-11.68 22.69-22.97 0-.35-.01-.7-.02-1.05a.92.92 0 0 1 .39-.81c.67-.5 1.31-1.05 1.9-1.64-.61.14-1.24.25-1.87.33a.926.926 0 0 1-1-.64.96.96 0 0 1 .4-1.13 7.4 7.4 0 0 0 1.95-1.7c-.94.37-1.91.65-2.9.84a.916.916 0 0 1-.87-.28 7.389 7.389 0 0 0-5.38-2.35c-4.06 0-7.36 3.34-7.36 7.46 0 .57.06 1.14.19 1.7a.94.94 0 0 1-.2.82c-.19.23-.47.39-.77.34-6.42-.32-12.48-3.22-16.83-8-.28.8-.42 1.64-.42 2.49 0 2.5 1.22 4.82 3.27 6.21.35.23.5.67.38 1.08-.13.4-.53.65-.93.66-.9-.02-1.79-.19-2.64-.48.58 2.96 2.82 5.3 5.75 5.9.43.08.75.46.76.9.02.44-.27.83-.69.95-.81.22-1.67.35-2.5.33a7.38 7.38 0 0 0 6.28 3.79c.4 0 .75.27.87.65.13.38 0 .8-.31 1.05-2.65 2.1-5.75 3.37-9.05 3.71z" fill="#000001"/><path d="M13.9 35.41c-4.71 0-9.29-1.36-13.25-3.93a.964.964 0 0 1-.38-1.12c.15-.42.57-.69 1-.63 3.32.4 6.78-.29 9.69-1.97-2.88-.87-5.21-3.13-6.16-6.11-.1-.33-.02-.68.2-.93.13-.15.31-.25.5-.3a9.426 9.426 0 0 1-3.65-7.46c0-.33.17-.7.46-.87.29-.17.64-.23.93-.07.09.05.17.1.26.14a9.436 9.436 0 0 1-1.59-5.25c0-1.65.44-3.28 1.25-4.71.16-.27.44-.44.74-.47.31-.02.61.11.81.35 3.81 4.73 9.32 7.73 15.27 8.35-.02-.29-.04-.58-.04-.87 0-5.17 4.15-9.37 9.25-9.37 2.37 0 4.66.93 6.37 2.57 1.58-.37 3.08-.98 4.49-1.82.34-.2.76-.17 1.07.07.3.25.43.66.31 1.04-.3.95-.75 1.83-1.32 2.63.4-.14.78-.29 1.16-.46.38-.18.83-.07 1.1.26.27.32.29.79.06 1.14a18.028 18.028 0 0 1-3.97 4.29c.01.2.01.41.01.62 0 12.23-9.19 24.88-24.57 24.88zm-8.91-3.75c2.8 1.21 5.82 1.84 8.91 1.84 14.2 0 22.69-11.68 22.69-22.97 0-.35-.01-.7-.02-1.05a.92.92 0 0 1 .39-.81c.67-.5 1.31-1.05 1.9-1.64-.61.14-1.24.25-1.87.33a.926.926 0 0 1-1-.64.96.96 0 0 1 .4-1.13 7.4 7.4 0 0 0 1.95-1.7c-.94.37-1.91.65-2.9.84a.916.916 0 0 1-.87-.28 7.389 7.389 0 0 0-5.38-2.35c-4.06 0-7.36 3.34-7.36 7.46 0 .57.06 1.14.19 1.7a.94.94 0 0 1-.2.82c-.19.23-.47.39-.77.34-6.42-.32-12.48-3.22-16.83-8-.28.8-.42 1.64-.42 2.49 0 2.5 1.22 4.82 3.27 6.21.35.23.5.67.38 1.08-.13.4-.53.65-.93.66-.9-.02-1.79-.19-2.64-.48.58 2.96 2.82 5.3 5.75 5.9.43.08.75.46.76.9.02.44-.27.83-.69.95-.81.22-1.67.35-2.5.33a7.38 7.38 0 0 0 6.28 3.79c.4 0 .75.27.87.65.13.38 0 .8-.31 1.05-2.65 2.1-5.75 3.37-9.05 3.71z" fill="#2a3137"/></svg>