<svg id="SvgjsSvg1000" xmlns="http://www.w3.org/2000/svg" version="1.1" xmlns:xlink="http://www.w3.org/1999/xlink" xmlns:svgjs="http://svgjs.com/svgjs" width="27" height="28" viewBox="0 0 27 28"><title>Shape 9</title><desc>Created with Avocode.</desc><defs id="SvgjsDefs1001"></defs><path id="SvgjsPath1007" d="M1654.96 443.068C1654.74 443.068 1654.53 442.986 1654.3700000000001 442.82399999999996C1654.0400000000002 442.49899999999997 1654.0400000000002 441.972 1654.3700000000001 441.64699999999993L1666.2600000000002 429.74199999999996L1654.3700000000001 417.83799999999997C1654.0400000000002 417.513 1654.0400000000002 416.98499999999996 1654.3700000000001 416.65999999999997C1654.69 416.335 1655.22 416.335 1655.5500000000002 416.66099999999994L1667.4550000000002 428.57839999999993L1679.3600000000001 416.66099999999994C1679.69 416.3349999999999 1680.21 416.3349999999999 1680.5400000000002 416.65999999999997C1680.8600000000001 416.98499999999996 1680.8600000000001 417.513 1680.5400000000002 417.83799999999997L1668.65 429.74199999999996L1680.5400000000002 441.64699999999993C1680.8600000000001 441.9719999999999 1680.8600000000001 442.4989999999999 1680.5400000000002 442.82399999999996C1680.38 442.98599999999993 1680.16 443.068 1679.9500000000003 443.068C1679.7400000000002 443.068 1679.5200000000002 442.986 1679.3600000000004 442.823L1667.4550000000004 430.90655L1655.5500000000004 442.823C1655.3800000000003 442.986 1655.1700000000003 443.068 1654.9600000000005 443.068Z " fill="#c99065" fill-opacity="1" transform="matrix(1,0,0,1,-1654,-416)"></path><path id="SvgjsPath1008" d="M1654.96 443.068C1654.74 443.068 1654.53 442.986 1654.3700000000001 442.82399999999996C1654.0400000000002 442.49899999999997 1654.0400000000002 441.972 1654.3700000000001 441.64699999999993L1666.2600000000002 429.74199999999996L1654.3700000000001 417.83799999999997C1654.0400000000002 417.513 1654.0400000000002 416.98499999999996 1654.3700000000001 416.65999999999997C1654.69 416.335 1655.22 416.335 1655.5500000000002 416.66099999999994L1667.4550000000002 428.57839999999993L1679.3600000000001 416.66099999999994C1679.69 416.3349999999999 1680.21 416.3349999999999 1680.5400000000002 416.65999999999997C1680.8600000000001 416.98499999999996 1680.8600000000001 417.513 1680.5400000000002 417.83799999999997L1668.65 429.74199999999996L1680.5400000000002 441.64699999999993C1680.8600000000001 441.9719999999999 1680.8600000000001 442.4989999999999 1680.5400000000002 442.82399999999996C1680.38 442.98599999999993 1680.16 443.068 1679.9500000000003 443.068C1679.7400000000002 443.068 1679.5200000000002 442.986 1679.3600000000004 442.823L1667.4550000000004 430.90655L1655.5500000000004 442.823C1655.3800000000003 442.986 1655.1700000000003 443.068 1654.9600000000005 443.068Z " fill="#96731c" fill-opacity="1" transform="matrix(1,0,0,1,-1654,-416)"></path></svg>