<svg id="SvgjsSvg1009" xmlns="http://www.w3.org/2000/svg" version="1.1" xmlns:xlink="http://www.w3.org/1999/xlink" xmlns:svgjs="http://svgjs.com/svgjs" width="72" height="26" viewBox="0 0 72 26"><title>ключ копия</title><desc>Created with Avocode.</desc><defs id="SvgjsDefs1010"></defs><path id="SvgjsPath1011" d="M1259.49 947.791C1252.94 947.791 1247.6200000000001 942.475 1247.6200000000001 935.942C1247.6200000000001 929.409 1252.94 924.095 1259.49 924.095C1265.36107 924.095 1270.25701 928.37753 1271.19712 933.98L1316.05 933.98C1317.27 933.98 1318.26 934.924 1318.26 936.09L1318.26 947.302C1318.26 948.4680000000001 1317.27 949.412 1316.05 949.412C1314.83 949.412 1313.84 948.4680000000001 1313.84 947.302L1313.84 938.2L1307.51 938.2L1307.51 943.942C1307.51 945.1080000000001 1306.53 946.052 1305.31 946.052C1304.09 946.052 1303.1 945.1080000000001 1303.1 943.942L1303.1 938.2L1271.14356 938.2C1270.08356 943.6570200000001 1265.25726 947.791 1259.49 947.791ZM1259.49 928.314C1255.38 928.314 1252.04 931.737 1252.04 935.942C1252.04 940.149 1255.3799999999999 943.571 1259.49 943.571C1263.6 943.571 1266.94 940.149 1266.94 935.942C1266.94 931.737 1263.6000000000001 928.314 1259.49 928.314Z " fill="#c99065" fill-opacity="1" transform="matrix(1,0,0,1,-1247,-924)"></path><path id="SvgjsPath1012" d="M1259.49 947.791C1252.94 947.791 1247.6200000000001 942.475 1247.6200000000001 935.942C1247.6200000000001 929.409 1252.94 924.095 1259.49 924.095C1265.36107 924.095 1270.25701 928.37753 1271.19712 933.98L1316.05 933.98C1317.27 933.98 1318.26 934.924 1318.26 936.09L1318.26 947.302C1318.26 948.4680000000001 1317.27 949.412 1316.05 949.412C1314.83 949.412 1313.84 948.4680000000001 1313.84 947.302L1313.84 938.2L1307.51 938.2L1307.51 943.942C1307.51 945.1080000000001 1306.53 946.052 1305.31 946.052C1304.09 946.052 1303.1 945.1080000000001 1303.1 943.942L1303.1 938.2L1271.14356 938.2C1270.08356 943.6570200000001 1265.25726 947.791 1259.49 947.791ZM1259.49 928.314C1255.38 928.314 1252.04 931.737 1252.04 935.942C1252.04 940.149 1255.3799999999999 943.571 1259.49 943.571C1263.6 943.571 1266.94 940.149 1266.94 935.942C1266.94 931.737 1263.6000000000001 928.314 1259.49 928.314Z " fill="#96731c" fill-opacity="1" transform="matrix(1,0,0,1,-1247,-924)"></path></svg>