<svg id="SvgjsSvg1013" xmlns="http://www.w3.org/2000/svg" version="1.1" xmlns:xlink="http://www.w3.org/1999/xlink" xmlns:svgjs="http://svgjs.com/svgjs" width="72" height="5" viewBox="0 0 72 5"><title>минус копия</title><desc>Created with Avocode.</desc><defs id="SvgjsDefs1014"></defs><path id="SvgjsPath1015" d="M1316.05 938.863L1249.83 938.863C1248.61 938.863 1247.62 937.9200000000001 1247.62 936.754C1247.62 935.587 1248.61 934.644 1249.83 934.644L1316.05 934.644C1317.27 934.644 1318.26 935.587 1318.26 936.754C1318.26 937.9200000000001 1317.27 938.863 1316.05 938.863Z " fill="#c99065" fill-opacity="1" transform="matrix(1,0,0,1,-1247,-934)"></path><path id="SvgjsPath1016" d="M1316.05 938.863L1249.83 938.863C1248.61 938.863 1247.62 937.9200000000001 1247.62 936.754C1247.62 935.587 1248.61 934.644 1249.83 934.644L1316.05 934.644C1317.27 934.644 1318.26 935.587 1318.26 936.754C1318.26 937.9200000000001 1317.27 938.863 1316.05 938.863Z " fill="#9b0d00" fill-opacity="1" transform="matrix(1,0,0,1,-1247,-934)"></path></svg>